<svg width="430" height="430" viewBox="0 0 430 430" fill="none" xmlns="http://www.w3.org/2000/svg">
<path d="M244.485 285.68C245.314 289.187 247.067 292.408 249.563 295.007C252.058 297.606 255.205 299.489 258.675 300.46C261.425 301.03 276.835 307.02 281.045 308.33C304.825 315.76 338.555 311.33 344.095 281.55C388.555 270.81 399.675 236.42 394.675 197.2C412.935 170.37 391.435 136.63 383.285 120.54C382.884 119.778 382.236 119.175 381.446 118.831C380.657 118.487 379.774 118.422 378.943 118.647C378.112 118.872 377.382 119.373 376.873 120.068C376.365 120.762 376.108 121.61 376.145 122.47C376.145 123.11 376.145 123.76 376.145 124.41C376.145 156.87 349.845 192.33 317.395 192.33L314.075 192.24C309.208 192.324 304.568 194.312 301.15 197.778C297.733 201.244 295.81 205.912 295.795 210.78C295.795 210.78 296.035 214.84 296.035 215.54C296.035 225.608 292.848 235.419 286.931 243.565C281.014 251.711 272.67 257.776 263.095 260.89C260.775 261.65 258.525 262.63 255.885 263.54C247.205 267.4 242.215 276.09 244.485 285.68Z" fill="#EBE6EF"/>
<path d="M185.515 285.68C184.688 289.186 182.936 292.406 180.442 295.005C177.948 297.604 174.804 299.488 171.335 300.46C168.585 301.03 153.185 307.02 148.965 308.33C125.185 315.76 91.4553 311.33 85.9653 281.55C41.4553 270.81 30.3453 236.42 35.3253 197.2C17.0753 170.37 38.5653 136.63 46.6753 120.54C47.0765 119.778 47.7251 119.175 48.5144 118.831C49.3037 118.487 50.1866 118.422 51.0178 118.647C51.8491 118.872 52.579 119.373 53.0875 120.068C53.5959 120.762 53.8526 121.61 53.8153 122.47C53.8153 123.11 53.8153 123.76 53.8153 124.41C53.8153 156.87 80.1253 192.33 112.575 192.33L115.885 192.24C120.759 192.313 125.41 194.297 128.836 197.764C132.262 201.232 134.19 205.905 134.205 210.78C134.205 210.78 133.965 214.84 133.965 215.54C133.966 225.608 137.153 235.419 143.07 243.565C148.987 251.711 157.33 257.776 166.905 260.89C169.235 261.65 171.485 262.63 174.115 263.54C182.795 267.4 187.795 276.09 185.515 285.68Z" fill="#EBE6EF"/>
<g style="mix-blend-mode:multiply" opacity="0.5">
<path d="M388.895 131.229C386.975 162.609 361.455 195.389 330.255 195.389L326.945 195.299C322.08 195.386 317.442 197.375 314.027 200.841C310.611 204.307 308.69 208.973 308.675 213.839C308.675 213.839 308.915 217.899 308.915 218.599C308.917 228.677 305.727 238.497 299.802 246.65C293.877 254.803 285.522 260.869 275.935 263.979C273.605 264.739 271.355 265.719 268.725 266.629C260.045 270.489 255.045 279.179 257.325 288.769C258.153 292.275 259.905 295.495 262.398 298.094C264.892 300.693 268.037 302.577 271.505 303.549C273.955 304.059 286.505 308.879 292.145 310.839C288.381 310.322 284.665 309.496 281.035 308.369C276.815 307.049 261.415 301.059 258.665 300.489C255.197 299.517 252.052 297.633 249.558 295.034C247.065 292.435 245.313 289.215 244.485 285.709C242.205 276.129 247.205 267.429 255.885 263.569C258.515 262.659 260.765 261.679 263.095 260.919C272.669 257.805 281.011 251.74 286.927 243.593C292.842 235.447 296.027 225.637 296.025 215.569C296.025 214.869 295.795 210.809 295.795 210.809C295.81 205.936 297.737 201.264 301.161 197.797C304.585 194.33 309.233 192.345 314.105 192.269L317.415 192.359C349.865 192.359 376.175 156.899 376.175 124.449C376.175 123.789 376.175 123.149 376.175 122.499C376.138 121.639 376.395 120.792 376.903 120.097C377.412 119.402 378.142 118.901 378.973 118.676C379.804 118.452 380.687 118.517 381.476 118.861C382.266 119.205 382.914 119.807 383.315 120.569C384.805 123.539 386.785 127.159 388.895 131.229Z" fill="#EBE6EF"/>
</g>
<g style="mix-blend-mode:multiply" opacity="0.5">
<path d="M144.455 309.57C121.125 315.12 91.1153 309.52 85.9153 281.57C41.4453 270.81 30.3353 236.42 35.3253 197.21C17.0653 170.37 38.5653 136.63 46.6753 120.54C47.0764 119.778 47.725 119.175 48.5144 118.831C49.3037 118.487 50.1866 118.422 51.0178 118.647C51.849 118.872 52.579 119.373 53.0874 120.068C53.5959 120.762 53.8526 121.61 53.8153 122.47C53.8153 123.12 53.8153 123.76 53.8153 124.42C53.8153 126.03 53.8753 127.64 54.0053 129.26C44.8253 146.98 33.2753 173.49 48.1653 195.37C43.1653 234.59 54.2853 268.98 98.7553 279.72C103.035 302.73 124.115 310.6 144.455 309.57Z" fill="#EBE6EF"/>
</g>
<path d="M244.485 285.679C245.314 289.186 247.067 292.407 249.563 295.006C252.058 297.606 255.205 299.489 258.675 300.459C261.425 301.019 276.835 307.019 281.045 308.329C304.825 315.759 338.555 311.329 344.095 281.549C388.555 270.809 399.675 236.419 394.675 197.199C412.935 170.369 391.435 136.629 383.285 120.529C382.884 119.766 382.234 119.163 381.444 118.819C380.654 118.475 379.769 118.41 378.938 118.637C378.106 118.863 377.376 119.365 376.868 120.062C376.36 120.759 376.105 121.608 376.145 122.469C376.145 123.109 376.145 123.759 376.145 124.409C376.145 156.859 349.845 192.329 317.395 192.329L314.075 192.239C309.208 192.323 304.568 194.311 301.15 197.777C297.733 201.244 295.81 205.911 295.795 210.779C295.795 210.779 296.035 214.839 296.035 215.539C296.033 225.607 292.846 235.417 286.929 243.563C281.012 251.709 272.669 257.774 263.095 260.889C260.775 261.649 258.525 262.629 255.885 263.529C247.205 267.399 242.215 276.089 244.485 285.679Z" stroke="#121331" stroke-width="7" stroke-linecap="round" stroke-linejoin="round"/>
<path d="M394.675 197.199C375.905 224.739 360.155 224.509 360.155 224.509" stroke="#121331" stroke-width="7" stroke-linecap="round" stroke-linejoin="round"/>
<path d="M344.085 281.55C317.245 286.86 304.495 273.6 304.495 273.6" stroke="#121331" stroke-width="7" stroke-linecap="round" stroke-linejoin="round"/>
<path d="M185.515 285.679C184.688 289.185 182.936 292.405 180.442 295.004C177.948 297.603 174.804 299.487 171.335 300.459C168.585 301.019 153.185 307.019 148.965 308.329C125.185 315.759 91.4553 311.329 85.9653 281.549C41.4553 270.809 30.3453 236.419 35.3253 197.199C17.0753 170.369 38.5653 136.629 46.6753 120.529C47.0767 119.766 47.7262 119.163 48.5167 118.819C49.3071 118.475 50.1912 118.41 51.0231 118.637C51.855 118.863 52.585 119.365 53.0926 120.062C53.6003 120.759 53.8552 121.608 53.8153 122.469C53.8153 123.109 53.8153 123.759 53.8153 124.409C53.8153 156.859 80.1253 192.329 112.575 192.329L115.885 192.239C120.759 192.312 125.41 194.296 128.836 197.764C132.262 201.231 134.19 205.905 134.205 210.779C134.205 210.779 133.965 214.839 133.965 215.539C133.967 225.607 137.155 235.417 143.072 243.563C148.989 251.709 157.331 257.774 166.905 260.889C169.235 261.649 171.485 262.629 174.115 263.529C182.795 267.399 187.795 276.089 185.515 285.679Z" stroke="#121331" stroke-width="7" stroke-linecap="round" stroke-linejoin="round"/>
<path d="M35.3253 197.199C54.0953 224.739 69.8553 224.509 69.8553 224.509" stroke="#121331" stroke-width="7" stroke-linecap="round" stroke-linejoin="round"/>
<path d="M85.9153 281.55C112.755 286.86 125.505 273.6 125.505 273.6" stroke="#121331" stroke-width="7" stroke-linecap="round" stroke-linejoin="round"/>
</svg>
